<?xml version="1.0" standalone="no"?>
<!DOCTYPE svg PUBLIC "-//W3C//DTD SVG 20010904//EN"
 "http://www.w3.org/TR/2001/REC-SVG-20010904/DTD/svg10.dtd">
<svg version="1.0" xmlns="http://www.w3.org/2000/svg"
 width="213.000000pt" height="211.000000pt" viewBox="0 0 213.000000 211.000000"
 preserveAspectRatio="xMidYMid meet">
<metadata>
Created by potrace 1.16, written by Peter Selinger 2001-2019
</metadata>
<g transform="translate(0.000000,211.000000) scale(0.100000,-0.100000)"
fill="#000000" stroke="none">
<path d="M431 1820 c0 -69 4 -145 10 -170 19 -81 67 -166 139 -243 62 -66 68
-76 49 -79 -61 -9 -40 -75 52 -167 l58 -58 -25 -11 c-34 -16 -33 -70 3 -112
55 -66 183 -144 268 -164 17 -4 39 -9 50 -12 11 -4 -18 20 -65 53 -47 32 -114
86 -150 120 l-65 62 55 -5 c40 -4 60 -2 75 10 19 14 17 18 -65 101 -78 79 -83
85 -54 79 35 -7 74 9 74 31 0 8 -56 64 -124 125 -128 114 -182 176 -210 244
-23 55 -21 55 25 8 61 -64 128 -104 302 -182 182 -81 243 -117 310 -185 85
-87 122 -198 116 -353 -2 -50 -3 -92 -2 -92 2 0 12 19 24 43 48 93 119 156
197 172 47 10 115 -25 137 -71 9 -20 14 -42 11 -49 -3 -8 -1 -17 4 -20 22 -13
8 -34 -32 -49 l-43 -16 69 5 c38 2 74 9 78 13 5 5 -5 21 -23 37 -28 23 -33 33
-30 64 5 78 -77 127 -197 119 l-67 -5 3 72 c7 122 -35 238 -107 301 -14 12
-62 44 -106 70 -114 69 -178 132 -224 225 -22 43 -45 103 -51 134 -6 30 -13
55 -15 55 -14 0 -39 -128 -39 -200 0 -82 3 -93 49 -203 7 -16 0 -15 -51 8
-122 54 -168 82 -232 140 -71 65 -116 129 -156 220 l-25 60 0 -125z m581 -250
c25 -25 93 -79 152 -119 116 -80 159 -129 181 -205 21 -69 20 -175 -2 -206
-16 -23 -17 -23 -39 70 -40 160 -111 250 -262 328 -54 29 -82 50 -91 69 -30
64 -51 139 -56 202 l-6 66 39 -80 c22 -47 57 -99 84 -125z"/>
<path d="M577 734 c-177 -43 -295 -173 -321 -354 -7 -45 -7 -45 29 28 21 42
62 100 97 137 102 109 215 152 458 172 l95 8 -66 13 c-85 16 -219 14 -292 -4z"/>
<path d="M1500 693 c-44 -70 -115 -134 -188 -170 -53 -26 -66 -28 -177 -28
-128 0 -195 16 -310 72 l-50 25 34 -35 c68 -71 211 -127 329 -127 140 0 280
64 342 158 28 42 67 148 58 157 -2 2 -19 -21 -38 -52z"/>
</g>
</svg>
